<mxfile host="app.diagrams.net" modified="2022-10-09T08:29:22.354Z" agent="5.0 (Windows NT 10.0; Win64; x64) AppleWebKit/537.36 (KHTML, like Gecko) Chrome/106.0.0.0 Safari/537.36" etag="a1bsYFvM0wFYovmrFDpU" version="20.4.0" type="github">
  <diagram id="TQi7t6NpXrlLMQliiDbz" name="Business Problem">
    <mxGraphModel dx="868" dy="450" grid="1" gridSize="10" guides="1" tooltips="1" connect="1" arrows="1" fold="1" page="1" pageScale="1" pageWidth="850" pageHeight="1100" math="0" shadow="0">
      <root>
        <mxCell id="0" />
        <mxCell id="1" parent="0" />
        <mxCell id="cnXPWbjHOrQOqPqAnLGX-80" value="" style="edgeStyle=orthogonalEdgeStyle;rounded=0;orthogonalLoop=1;jettySize=auto;html=1;" edge="1" parent="1" source="cnXPWbjHOrQOqPqAnLGX-20" target="cnXPWbjHOrQOqPqAnLGX-79">
          <mxGeometry relative="1" as="geometry" />
        </mxCell>
        <mxCell id="cnXPWbjHOrQOqPqAnLGX-79" value="&lt;span style=&quot;font-weight: 400;&quot;&gt;INSIDE&lt;/span&gt;" style="ellipse;whiteSpace=wrap;html=1;verticalAlign=bottom;fontStyle=1;spacing=2;spacingLeft=0;rounded=1;spacingBottom=4;flipH=0;flipV=0;direction=east;" vertex="1" parent="1">
          <mxGeometry x="250" y="230" width="120" height="60" as="geometry" />
        </mxCell>
        <mxCell id="cnXPWbjHOrQOqPqAnLGX-84" value="" style="edgeStyle=orthogonalEdgeStyle;rounded=0;orthogonalLoop=1;jettySize=auto;html=1;" edge="1" parent="1" source="cnXPWbjHOrQOqPqAnLGX-20" target="cnXPWbjHOrQOqPqAnLGX-83">
          <mxGeometry relative="1" as="geometry" />
        </mxCell>
        <mxCell id="cnXPWbjHOrQOqPqAnLGX-20" value="Project deplay" style="label;whiteSpace=wrap;html=1;align=center;verticalAlign=bottom;spacingLeft=0;spacingBottom=4;imageAlign=center;imageVerticalAlign=top;image=img/clipart/Gear_128x128.png;flipV=0;flipH=1;" vertex="1" parent="1">
          <mxGeometry x="450" y="220" width="120" height="80" as="geometry" />
        </mxCell>
        <mxCell id="cnXPWbjHOrQOqPqAnLGX-60" value="Flow" style="swimlane;childLayout=stackLayout;horizontal=1;fillColor=none;horizontalStack=1;resizeParent=1;resizeParentMax=0;resizeLast=0;collapsible=0;strokeColor=none;stackBorder=10;stackSpacing=-12;resizable=1;align=center;points=[];fontColor=#000000;" vertex="1" parent="1">
          <mxGeometry x="260" y="10" width="500" height="100" as="geometry" />
        </mxCell>
        <mxCell id="cnXPWbjHOrQOqPqAnLGX-61" value="User" style="shape=step;perimeter=stepPerimeter;fixedSize=1;points=[];" vertex="1" parent="cnXPWbjHOrQOqPqAnLGX-60">
          <mxGeometry x="10" y="33" width="100" height="57" as="geometry" />
        </mxCell>
        <mxCell id="cnXPWbjHOrQOqPqAnLGX-62" value="BA" style="shape=step;perimeter=stepPerimeter;fixedSize=1;points=[];" vertex="1" parent="cnXPWbjHOrQOqPqAnLGX-60">
          <mxGeometry x="98" y="33" width="100" height="57" as="geometry" />
        </mxCell>
        <mxCell id="cnXPWbjHOrQOqPqAnLGX-66" value="SYSTEM DEV" style="shape=step;perimeter=stepPerimeter;fixedSize=1;points=[];" vertex="1" parent="cnXPWbjHOrQOqPqAnLGX-60">
          <mxGeometry x="186" y="33" width="124" height="57" as="geometry" />
        </mxCell>
        <mxCell id="cnXPWbjHOrQOqPqAnLGX-63" value="SYSTEM ADMIN" style="shape=step;perimeter=stepPerimeter;fixedSize=1;points=[];" vertex="1" parent="cnXPWbjHOrQOqPqAnLGX-60">
          <mxGeometry x="298" y="33" width="192" height="57" as="geometry" />
        </mxCell>
        <mxCell id="cnXPWbjHOrQOqPqAnLGX-71" value="" style="shape=singleArrow;direction=south;whiteSpace=wrap;html=1;" vertex="1" parent="1">
          <mxGeometry x="490" y="110" width="40" height="100" as="geometry" />
        </mxCell>
        <mxCell id="cnXPWbjHOrQOqPqAnLGX-83" value="OUTSIDE" style="ellipse;whiteSpace=wrap;html=1;verticalAlign=bottom;fontStyle=1;spacing=2;spacingLeft=0;rounded=1;spacingBottom=4;" vertex="1" parent="1">
          <mxGeometry x="650" y="230" width="120" height="60" as="geometry" />
        </mxCell>
      </root>
    </mxGraphModel>
  </diagram>
</mxfile>
